<svg id="Layer_1" data-name="Layer 1" xmlns="http://www.w3.org/2000/svg" width="250" height="71.5" viewBox="0 0 250 71.5"><title>VinylmaxLogo_160x80</title><circle cx="39.84" cy="5.8" r="5.8" fill="#ff4713"/><rect x="35.01" y="16.91" width="9.66" height="29.94" fill="#3f4443"/><rect x="118.11" y="0.98" width="9.66" height="45.88" fill="#3f4443"/><path d="M208.38,19.81a24.62,24.62,0,0,0-12.57,3.77l2.67,6.65a15.69,15.69,0,0,1,9-2.63c2.49,0,4,.9,4,3.8C199,31.89,193.85,36.23,193.85,42c0,4.8,3.18,8.69,9.46,8.69a11.44,11.44,0,0,0,9.12-4.45l2.91,4h5.84V29.47C221.18,22.71,216.35,19.81,208.38,19.81ZM211.5,41a6.58,6.58,0,0,1-5.78,3,2.86,2.86,0,0,1-2.87-2.9c0-2.14,1.78-3,4.6-3.38,1.22-.14,3-.29,4.05-.47Z" transform="translate(-5 -3.38)" fill="#3f4443"/><path d="M76.24,19.81a13.28,13.28,0,0,0-10.15,4.51v-4H56.43v30h9.66V31.4A7.17,7.17,0,0,1,72,28.13a4.72,4.72,0,0,1,4.72,4.72V50.24h9.66V30A10.14,10.14,0,0,0,76.24,19.81Z" transform="translate(-5 -3.38)" fill="#3f4443"/><path d="M179.62,19.81a13.35,13.35,0,0,0-10.86,5.36,10.13,10.13,0,0,0-8.94-5.36,13.28,13.28,0,0,0-10.15,4.51v-4H140v30h9.65V31.85a7.25,7.25,0,0,1,5.91-3.72,4.72,4.72,0,0,1,4.72,4.72V50.24H170V30.79a7,7,0,0,1,5.42-2.66,4.72,4.72,0,0,1,4.72,4.72V50.24h9.66V30A10.14,10.14,0,0,0,179.62,19.81Z" transform="translate(-5 -3.38)" fill="#3f4443"/><polygon points="250 16.91 239.37 16.91 234.54 24.64 229.71 16.91 219.08 16.91 229.22 31.89 219.08 46.86 229.71 46.86 234.54 39.13 239.37 46.86 250 46.86 239.85 31.89 250 16.91" fill="#3f4443"/><polygon points="99.26 34.78 92.5 16.91 83.32 16.91 94.67 46.07 89.36 59.72 93.95 71.5 115.21 16.91 106.03 16.91 99.26 34.78" fill="#3f4443"/><polygon points="13.75 37.68 9.74 27.54 0 27.54 13.75 59.25 32.11 16.91 21.96 16.91 13.75 37.68" fill="#3f4443"/><path d="M154.3,74.88h-.11l-3.53-6.66-3.56,6.66H147l-6.5-13.82h4.33l2.57,6.55,3.21-6.55h.11l3.18,6.55,2.59-6.55h4.34Z" transform="translate(-5 -3.38)" fill="#ff4713"/><path d="M168.18,56.78a2.32,2.32,0,1,1-2.33-2.33A2.26,2.26,0,0,1,168.18,56.78Zm-.35,17.84h-4V61.06h4Z" transform="translate(-5 -3.38)" fill="#ff4713"/><path d="M185.11,66.81v7.81h-4V67a2.22,2.22,0,0,0-2.22-2.51,3,3,0,0,0-2.54,1.57v8.54h-4V61.06H176l.19,1.49A4.46,4.46,0,0,1,180,60.79C183.32,60.79,185.11,63.14,185.11,66.81Z" transform="translate(-5 -3.38)" fill="#ff4713"/><path d="M202.5,74.62h-3.56l-.19-1.5a4.73,4.73,0,0,1-4,1.76c-3.61,0-6.07-3-6.07-7s2.46-7.06,6.07-7.06a4.72,4.72,0,0,1,3.75,1.5v-8h4Zm-9.77-6.77c0,2.22,1.23,3.58,3,3.58a3.14,3.14,0,0,0,2.78-1.68V66a3.11,3.11,0,0,0-2.78-1.71C194,64.24,192.73,65.63,192.73,67.85Z" transform="translate(-5 -3.38)" fill="#ff4713"/><path d="M220.55,67.88a7.16,7.16,0,1,1-7.17-7.09A6.87,6.87,0,0,1,220.55,67.88Zm-10.3,0c0,2.08,1.29,3.55,3.13,3.55a3.25,3.25,0,0,0,3.19-3.55c0-2.14-1.32-3.64-3.19-3.64S210.25,65.74,210.25,67.88Z" transform="translate(-5 -3.38)" fill="#ff4713"/><path d="M235.72,74.88h-.11l-3.53-6.66-3.56,6.66h-.11l-6.5-13.82h4.34l2.57,6.55,3.2-6.55h.11l3.18,6.55,2.6-6.55h4.33Z" transform="translate(-5 -3.38)" fill="#ff4713"/><path d="M254.92,62.21,253.48,65a6.11,6.11,0,0,0-3.43-1.15c-1.09,0-1.74.34-1.74,1.07s.51,1,2.41,1.41c2.92.7,4.28,2,4.28,4,0,2.72-2.25,4.54-5.91,4.54a8.61,8.61,0,0,1-5.22-1.55l1.5-2.83a5.89,5.89,0,0,0,3.75,1.36c1.2,0,1.92-.35,1.92-1.15s-.48-1.07-2.24-1.5c-3.05-.75-4.42-1.84-4.42-4,0-2.72,2.11-4.46,5.7-4.46A8.41,8.41,0,0,1,254.92,62.21Z" transform="translate(-5 -3.38)" fill="#ff4713"/></svg>