<svg xmlns="http://www.w3.org/2000/svg" width="100" height="36.462" viewBox="0 0 100 36.462"><defs><style>.a,.b{fill:#015a75;}.b{fill-rule:evenodd;}.c{fill:#fff;}</style></defs><g transform="translate(0)"><g transform="translate(0)"><path class="a" d="M297.093,33.953V7.055a4.373,4.373,0,0,0-4.329-4.415H235V38.368h57.763a4.373,4.373,0,0,0,4.329-4.415" transform="translate(-204.486 -2.273)"/><path class="a" d="M290.5,36.462H232.37V0H290.5a4.748,4.748,0,0,1,4.7,4.788V31.674a4.748,4.748,0,0,1-4.7,4.788m-57.4-.748h57.4a4.006,4.006,0,0,0,3.963-4.04V4.788A4.006,4.006,0,0,0,290.5.748H233.1Z" transform="translate(-202.222)"/><path class="b" d="M60.4,28.3l-1.51,2.132a2.93,2.93,0,0,0,.511,3.721l2.8,2.068c.481.355.518.711.29,1.082l.407.31,1.419-2.01a2.76,2.76,0,0,0-.5-3.9L60.989,29.6A.732.732,0,0,1,60.8,28.6l-.407-.3M62.82,18.89l-2.352,3.327a4.2,4.2,0,0,0,.806,5.358l3.867,2.9a2.27,2.27,0,0,1,.315,2.855l.328.252,2.668-3.837A4.1,4.1,0,0,0,67.7,24.08l-4.136-3.074a1.3,1.3,0,0,1-.386-1.859l-.356-.257m-6.2,20.869h3.117l.556,1.933h5.094l.556-1.933h3.118l-.408-1.421H57.03l-.409,1.421m1.46,6.467a1.653,1.653,0,0,0,.884-1.471c0-1.32-1.057-1.859-2.212-1.859H53.53v7.011h3.2c1.364,0,2.809-.61,2.576-2.216-.139-.92-.495-1.137-1.219-1.467m-3.1-1.987h1.678a.749.749,0,1,1,.065,1.5H54.985Zm1.872,4.345H54.985v-1.6h1.872C58.23,46.983,58.146,48.582,56.856,48.582Zm7.625-2.356a1.653,1.653,0,0,0,.884-1.471c0-1.32-1.057-1.859-2.212-1.859H59.93v7.011h3.2c1.363,0,2.809-.61,2.576-2.216-.139-.92-.495-1.137-1.219-1.467m-3.093-1.99h1.674a.749.749,0,1,1,.065,1.5H61.389Zm1.867,4.346H61.389v-1.6h1.867c1.373,0,1.289,1.6,0,1.6Zm8.842-.888c-.139-.92-.495-1.137-1.219-1.467a1.653,1.653,0,0,0,.884-1.471c0-1.32-1.057-1.859-2.212-1.859H66.33v7.011h3.2c1.363,0,2.809-.61,2.576-2.216m-4.307-3.455h1.669a.749.749,0,1,1,.065,1.5h-1.74Zm1.867,4.346H67.788v-1.6h1.867c1.373,0,1.289,1.6,0,1.6Z" transform="translate(-46.092 -16.265)"/><path class="c" d="M275.337,86.24l-.313-.863h-2.186l-.321.863H271.28l1.972-5.1h1.36l1.963,5.1Zm-1.4-4.013-.795,2.193h1.589Zm2.926,1.467a2.593,2.593,0,0,1,2.712-2.64A2.333,2.333,0,0,1,281.7,82.3l-.932.459a1.381,1.381,0,0,0-1.192-.745,1.669,1.669,0,0,0,0,3.335,1.366,1.366,0,0,0,1.2-.741l.927.463a2.347,2.347,0,0,1-2.131,1.251A2.589,2.589,0,0,1,276.859,83.694Zm5.3,0a2.593,2.593,0,0,1,2.712-2.64,2.333,2.333,0,0,1,2.131,1.25l-.932.459a1.381,1.381,0,0,0-1.2-.745,1.669,1.669,0,0,0,0,3.335,1.366,1.366,0,0,0,1.2-.741l.932.45a2.347,2.347,0,0,1-2.131,1.25A2.569,2.569,0,0,1,282.162,83.694Zm8.428,2.545-1-1.806H288.8V86.24H287.71v-5.1h2.384a1.587,1.587,0,0,1,1.712,1.642,1.459,1.459,0,0,1-1.112,1.513l1.146,1.945Zm.1-3.454a.692.692,0,0,0-.764-.688h-1.138v1.376h1.138A.69.69,0,0,0,290.693,82.786Zm1.984,3.454v-5.1h3.613V82.1h-2.527v1.077h2.468v.955h-2.468v1.153h2.522v.955Zm4.509,0v-5.1H299.2a2.553,2.553,0,1,1,0,5.1ZM300.8,83.7a1.494,1.494,0,0,0-1.6-1.6h-.924v3.185h.924a1.524,1.524,0,0,0,1.591-1.59Zm1.928,2.544v-5.1h1.085v5.1Zm3.324,0V82.1H304.56v-.955h4.066V82.1h-1.483V86.24Zm3.324,0v-5.1h3.613V82.1H310.46v1.077h2.465v.955H310.46v1.153h2.522v.955Zm4.509,0v-5.1h2.009a2.553,2.553,0,1,1,0,5.1ZM317.5,83.7a1.494,1.494,0,0,0-1.6-1.6h-.924v3.185h.924a1.523,1.523,0,0,0,1.591-1.59Zm-45.672,11.3V89.9H274.5a1.317,1.317,0,0,1,1.467,1.3,1.131,1.131,0,0,1-.878,1.169,1.23,1.23,0,0,1,.973,1.25,1.342,1.342,0,0,1-1.483,1.376Zm3.042-3.613a.556.556,0,0,0-.6-.556h-1.36v1.112h1.36a.542.542,0,0,0,.595-.55Zm.1,2.084a.6.6,0,0,0-.657-.6h-1.4v1.184h1.4a.578.578,0,0,0,.657-.588Zm1.974-.5V89.9h1.112v3.026a1.2,1.2,0,1,0,2.391,0V89.9h1.112v3.057a2.315,2.315,0,0,1-4.614.007Zm5.316,1.314.588-.825a2.234,2.234,0,0,0,1.62.688c.6,0,.886-.278.886-.566,0-.374-.474-.481-1.031-.618-.834-.19-1.9-.417-1.9-1.581,0-.848.734-1.551,1.933-1.551a2.838,2.838,0,0,1,1.987.71l-.6.8a2.188,2.188,0,0,0-1.482-.556c-.466,0-.725.207-.725.511,0,.329.465.435,1.016.565.834.2,1.911.452,1.911,1.6,0,.932-.664,1.635-2.04,1.635A2.948,2.948,0,0,1,282.254,94.275Zm4.983.718V89.9h1.085v5.1Zm5.662,0-2.43-3.324v3.324h-1.085V89.9h1.112l2.362,3.2V89.9h1.085v5.1Zm2.109,0V89.9h3.613v.955h-2.527v1.077h2.468v.955h-2.468v1.153h2.52v.955Zm4.161-.718.588-.825a2.234,2.234,0,0,0,1.62.688c.6,0,.886-.278.886-.566,0-.374-.474-.481-1.031-.618-.834-.19-1.9-.417-1.9-1.581,0-.848.734-1.551,1.933-1.551a2.838,2.838,0,0,1,1.987.71l-.6.8a2.19,2.19,0,0,0-1.483-.556c-.465,0-.725.207-.725.511,0,.329.467.435,1.016.565.834.2,1.91.452,1.91,1.6,0,.932-.664,1.635-2.04,1.635A2.966,2.966,0,0,1,299.169,94.275Zm4.644,0,.588-.825a2.234,2.234,0,0,0,1.62.688c.6,0,.886-.278.886-.566,0-.374-.474-.481-1.031-.618-.834-.19-1.9-.417-1.9-1.581,0-.848.734-1.551,1.933-1.551a2.838,2.838,0,0,1,1.987.71l-.6.8a2.19,2.19,0,0,0-1.483-.556c-.465,0-.725.207-.725.511,0,.329.467.435,1.016.565.834.2,1.91.452,1.91,1.6,0,.932-.664,1.635-2.04,1.635A2.944,2.944,0,0,1,303.812,94.275Z" transform="translate(-235.057 -69.432)"/><path class="a" d="M94.091,33.392v-.017A2.957,2.957,0,1,1,100,33.358v.017a2.957,2.957,0,1,1-5.909.017Zm5.64-.017v-.017a2.688,2.688,0,1,0-5.371.017v.017a2.688,2.688,0,1,0,5.371-.017ZM95.886,31.71h1.36a1.231,1.231,0,0,1,.9.331.847.847,0,0,1,.245.612v.017a.922.922,0,0,1-.784.926l.939,1.266h-.555l-.873-1.19h-.775v1.19h-.449ZM97.2,33.256c.424,0,.718-.2.718-.567v-.017c0-.331-.261-.544-.694-.544h-.89v1.122ZM32.329,36.462H4.6A4.7,4.7,0,0,1,0,31.674V4.788A4.7,4.7,0,0,1,4.6,0H32.329V36.462M4.6.748a3.966,3.966,0,0,0-3.88,4.04V31.674a3.966,3.966,0,0,0,3.88,4.04H31.611V.748Z"/></g></g></svg>