<svg xmlns="http://www.w3.org/2000/svg" width="192.877" height="70.326" viewBox="0 0 192.877 70.326"><defs><style>.a,.b{fill:#015a75;}.b{fill-rule:evenodd;}.c{fill:#fff;}</style></defs><g transform="translate(0)"><path class="a" d="M354.763,63.035V11.156a8.435,8.435,0,0,0-8.351-8.516H235V71.551H346.412a8.435,8.435,0,0,0,8.351-8.516" transform="translate(-176.146 -1.933)"/><path class="a" d="M344.487,70.326H232.37V0H344.487a9.158,9.158,0,0,1,9.058,9.234V61.092a9.158,9.158,0,0,1-9.058,9.234m-110.7-1.442h110.7a7.727,7.727,0,0,0,7.643-7.792V9.234a7.727,7.727,0,0,0-7.643-7.792h-110.7Z" transform="translate(-174.221)"/><path class="b" d="M66.774,37.037l-2.913,4.112c-1.461,2.059-1.008,5.7.986,7.177l5.4,3.989c.927.685,1,1.371.56,2.086l.785.6,2.736-3.876a5.323,5.323,0,0,0-.965-7.522l-5.451-4.063a1.411,1.411,0,0,1-.359-1.919l-.785-.573M71.448,18.89l-4.537,6.417c-2.128,3.01-1.353,8.142,1.554,10.335l7.458,5.6c1.511,1.135,1.71,4.027.608,5.507l.632.485,5.145-7.4c2.31-3.325,2.176-8.238-1.453-10.932l-7.978-5.929a2.513,2.513,0,0,1-.745-3.586l-.686-.5M59.493,59.141H65.5l1.072,3.728H76.4l1.072-3.728h6.014L82.7,56.4H60.281l-.788,2.741m2.817,12.473a3.187,3.187,0,0,0,1.7-2.837c0-2.547-2.039-3.586-4.266-3.586H53.53V78.714h6.164c2.632,0,5.419-1.176,4.969-4.274-.268-1.774-.954-2.193-2.35-2.829m-5.976-3.832h3.237a1.444,1.444,0,1,1,.126,2.884H56.336Zm3.61,8.38h-3.61V73.075h3.61C62.6,73.075,62.433,76.159,59.946,76.159Zm14.707-4.545a3.187,3.187,0,0,0,1.7-2.837c0-2.547-2.039-3.586-4.266-3.586H65.874V78.714h6.164c2.629,0,5.419-1.176,4.969-4.274-.268-1.774-.954-2.193-2.35-2.829M68.69,67.773H71.92a1.444,1.444,0,1,1,.126,2.884H68.688Zm3.6,8.383h-3.6V73.075h3.6c2.648,0,2.487,3.084,0,3.084Zm17.055-1.713c-.268-1.774-.954-2.193-2.35-2.829a3.187,3.187,0,0,0,1.7-2.837c0-2.547-2.039-3.586-4.266-3.586H78.217V78.714h6.164c2.629,0,5.419-1.176,4.969-4.274m-8.308-6.664h3.219a1.444,1.444,0,1,1,.126,2.884H81.031Zm3.6,8.383H81.031V73.075h3.6c2.648,0,2.487,3.084,0,3.084Z" transform="translate(-39.184 -13.828)"/><path class="c" d="M279.105,91.057l-.6-1.664h-4.216l-.619,1.664H271.28l3.8-9.83h2.624l3.787,9.83Zm-2.709-7.74-1.533,4.229h3.066Zm5.644,2.83a5,5,0,0,1,5.231-5.092,4.5,4.5,0,0,1,4.111,2.412l-1.8.884a2.664,2.664,0,0,0-2.3-1.436,3.219,3.219,0,0,0,0,6.432,2.634,2.634,0,0,0,2.313-1.428l1.787.892a4.526,4.526,0,0,1-4.111,2.412A4.994,4.994,0,0,1,282.04,86.147Zm10.229,0a5,5,0,0,1,5.231-5.092,4.5,4.5,0,0,1,4.111,2.412l-1.8.884a2.664,2.664,0,0,0-2.313-1.436,3.219,3.219,0,0,0,0,6.432,2.634,2.634,0,0,0,2.313-1.428l1.8.868A4.526,4.526,0,0,1,297.5,91.2,4.954,4.954,0,0,1,292.269,86.147Zm16.256,4.91L306.6,87.573h-1.533v3.484H302.97v-9.83h4.6a3.061,3.061,0,0,1,3.3,3.168,2.813,2.813,0,0,1-2.144,2.918l2.211,3.752Zm.2-6.662a1.334,1.334,0,0,0-1.474-1.327h-2.195v2.653h2.195A1.33,1.33,0,0,0,308.724,84.394Zm3.827,6.662v-9.83h6.968v1.841h-4.875v2.077h4.76v1.841h-4.76V89.21h4.864v1.841Zm8.7,0v-9.83h3.875c3.079,0,5.218,1.959,5.218,4.923s-2.144,4.907-5.218,4.907Zm6.968-4.907a2.881,2.881,0,0,0-3.079-3.079h-1.782v6.142h1.782a2.94,2.94,0,0,0,3.069-3.066Zm3.72,4.907v-9.83h2.093v9.83Zm6.41,0V83.068h-2.876V81.227h7.842v1.841h-2.86v7.989Zm6.41,0v-9.83h6.968v1.841h-4.875v2.077H351.6v1.841h-4.754V89.21h4.864v1.841Zm8.7,0v-9.83h3.875c3.079,0,5.218,1.959,5.218,4.923s-2.144,4.907-5.218,4.907Zm6.968-4.907a2.881,2.881,0,0,0-3.079-3.079h-1.782v6.142h1.782a2.938,2.938,0,0,0,3.068-3.066Zm-88.091,21.79V98.11H277.5a2.54,2.54,0,0,1,2.83,2.506,2.182,2.182,0,0,1-1.694,2.254,2.372,2.372,0,0,1,1.876,2.412,2.588,2.588,0,0,1-2.859,2.653Zm5.866-6.968a1.072,1.072,0,0,0-1.15-1.072h-2.624v2.144h2.624a1.046,1.046,0,0,0,1.147-1.061Zm.19,4.02a1.149,1.149,0,0,0-1.268-1.15h-2.7v2.283h2.7A1.114,1.114,0,0,0,278.384,104.992Zm3.808-.973V98.11h2.144v5.837a2.306,2.306,0,1,0,4.612,0V98.11h2.144v5.9c0,2.447-1.444,4.111-4.435,4.111S282.193,106.437,282.193,104.019Zm10.253,2.535,1.134-1.592a4.31,4.31,0,0,0,3.125,1.327c1.15,0,1.71-.536,1.71-1.091,0-.721-.914-.927-1.988-1.193-1.608-.367-3.669-.8-3.669-3.05,0-1.635,1.415-2.991,3.728-2.991a5.474,5.474,0,0,1,3.832,1.369l-1.166,1.536a4.221,4.221,0,0,0-2.859-1.072c-.9,0-1.4.4-1.4.986,0,.635.9.839,1.959,1.091,1.608.383,3.685.871,3.685,3.1,0,1.8-1.281,3.154-3.934,3.154A5.687,5.687,0,0,1,292.446,106.555Zm9.61,1.386V98.11h2.093v9.83Zm10.921,0-4.687-6.41v6.41H306.2V98.11h2.144l4.556,6.164V98.11h2.093v9.83Zm4.068,0V98.11h6.968v1.841h-4.875v2.077H323.9v1.841h-4.759v2.224H324v1.841Zm8.026-1.386,1.134-1.592a4.309,4.309,0,0,0,3.125,1.327c1.15,0,1.71-.536,1.71-1.091,0-.721-.914-.927-1.988-1.193-1.608-.367-3.669-.8-3.669-3.05,0-1.635,1.415-2.991,3.728-2.991a5.474,5.474,0,0,1,3.832,1.369l-1.158,1.536a4.224,4.224,0,0,0-2.859-1.072c-.9,0-1.4.4-1.4.986,0,.635.9.839,1.959,1.091,1.608.383,3.685.871,3.685,3.1,0,1.8-1.281,3.154-3.934,3.154A5.721,5.721,0,0,1,325.071,106.555Zm8.956,0,1.134-1.592a4.309,4.309,0,0,0,3.125,1.327c1.15,0,1.71-.536,1.71-1.091,0-.721-.914-.927-1.988-1.193-1.608-.367-3.669-.8-3.669-3.05,0-1.635,1.415-2.991,3.728-2.991a5.474,5.474,0,0,1,3.832,1.369l-1.166,1.536a4.224,4.224,0,0,0-2.859-1.072c-.9,0-1.4.4-1.4.986,0,.635.9.839,1.959,1.091,1.608.383,3.685.871,3.685,3.1,0,1.8-1.281,3.154-3.934,3.154A5.678,5.678,0,0,1,334.027,106.555Z" transform="translate(-201.415 -58.638)"/><path class="a" d="M181.479,64.406v-.033a5.7,5.7,0,1,1,11.4-.033v.033a5.7,5.7,0,1,1-11.4.033Zm10.878-.033V64.34A5.184,5.184,0,1,0,182,64.373v.033a5.184,5.184,0,1,0,10.359-.033Zm-7.415-3.213h2.624a2.375,2.375,0,0,1,1.732.639,1.634,1.634,0,0,1,.472,1.18v.033a1.779,1.779,0,0,1-1.511,1.787l1.81,2.442H189l-1.685-2.295h-1.5v2.295h-.866Zm2.535,2.983c.819,0,1.385-.393,1.385-1.093v-.033c0-.639-.5-1.049-1.338-1.049h-1.716v2.164ZM62.355,70.326H8.868A9.068,9.068,0,0,1,0,61.092V9.234A9.068,9.068,0,0,1,8.868,0H62.355V70.326M8.868,1.442A7.65,7.65,0,0,0,1.385,9.234V61.092a7.65,7.65,0,0,0,7.483,7.792h52.1V1.442Z"/></g></svg>