<?xml version="1.0" standalone="no"?>
<!DOCTYPE svg PUBLIC "-//W3C//DTD SVG 20010904//EN"
 "http://www.w3.org/TR/2001/REC-SVG-20010904/DTD/svg10.dtd">
<svg version="1.0" xmlns="http://www.w3.org/2000/svg"
 width="1440.000000pt" height="1440.000000pt" viewBox="0 0 1440.000000 1440.000000"
 preserveAspectRatio="xMidYMid meet">
<metadata>
Created by potrace 1.11, written by Peter Selinger 2001-2013
</metadata>
<g transform="translate(0.000000,1440.000000) scale(0.100000,-0.100000)"
fill="#000000" stroke="none">
<path d="M2877 11423 c-1 -1 -36 -4 -77 -8 -81 -6 -137 -13 -179 -19 -14 -3
-44 -7 -66 -11 -159 -23 -349 -79 -517 -151 -98 -42 -275 -134 -336 -175 -24
-16 -47 -29 -52 -29 -4 0 -10 -3 -12 -7 -1 -5 -39 -35 -83 -67 -102 -76 -97
-70 -125 -141 -13 -33 -28 -69 -34 -80 -5 -11 -11 -24 -12 -30 -1 -5 -10 -28
-20 -50 -10 -22 -18 -42 -19 -45 -1 -6 -60 -150 -80 -195 -37 -83 -49 -111
-50 -120 -2 -13 -13 -39 -43 -105 -14 -30 -26 -60 -28 -66 -1 -9 -56 -142 -89
-219 -8 -16 -22 -52 -33 -80 -12 -27 -41 -99 -66 -159 -25 -60 -45 -111 -43
-112 2 -2 30 -8 100 -20 17 -3 41 -7 52 -9 65 -12 84 -15 120 -20 22 -3 48 -7
58 -8 19 -2 25 9 148 243 18 36 36 67 39 70 3 3 25 45 50 94 24 50 55 105 67
123 13 19 23 36 23 38 0 11 125 179 156 210 43 44 158 121 254 172 74 40 216
99 255 108 11 2 58 15 105 29 47 13 102 27 124 30 21 4 41 8 45 10 4 3 31 7
61 11 30 3 70 8 87 11 123 19 388 7 567 -27 33 -7 68 -12 76 -13 9 -1 20 -5
25 -8 6 -3 26 -9 45 -13 41 -8 228 -83 250 -99 8 -6 36 -22 63 -36 26 -13 47
-28 47 -32 0 -5 7 -8 15 -8 8 0 15 -4 15 -10 0 -5 5 -10 11 -10 26 0 227 -187
289 -269 14 -18 30 -38 36 -44 5 -7 13 -19 17 -27 4 -8 18 -33 32 -55 14 -22
27 -47 31 -55 3 -8 10 -22 15 -30 40 -66 99 -248 124 -385 25 -134 20 -397
-10 -505 -3 -8 -7 -33 -10 -55 -6 -41 -15 -92 -19 -110 -1 -5 -10 -37 -20 -70
-10 -33 -18 -62 -19 -65 0 -3 -13 -35 -28 -72 -15 -38 -25 -68 -21 -68 4 0 2
-4 -3 -8 -6 -4 -22 -32 -37 -62 -39 -78 -70 -132 -90 -154 -10 -11 -18 -23
-18 -26 0 -4 -8 -16 -17 -28 -10 -11 -42 -52 -72 -89 -30 -37 -92 -102 -138
-142 -84 -76 -263 -202 -275 -195 -4 2 -9 0 -13 -6 -9 -14 -218 -105 -270
-117 -39 -9 -50 -11 -50 -13 0 -2 -16 -5 -58 -13 -15 -3 -35 -8 -45 -11 -113
-33 -383 -38 -552 -11 -66 11 -178 36 -300 66 -47 12 -89 22 -95 24 -5 1 -17
5 -25 8 -67 25 -90 28 -106 13 -8 -9 -14 -16 -11 -16 2 0 -16 -55 -40 -122
-48 -136 -47 -131 -58 -173 -4 -16 -11 -34 -15 -40 -4 -5 -26 -66 -49 -134
l-43 -123 36 -35 c32 -32 39 -34 64 -25 27 11 103 32 112 31 3 0 18 4 33 10
15 6 40 13 55 16 15 3 38 7 52 10 27 6 50 9 120 20 25 4 53 9 63 11 116 21
480 21 593 0 11 -2 41 -7 68 -10 87 -12 258 -54 301 -75 83 -39 157 -71 165
-71 6 0 10 -4 10 -8 0 -5 12 -14 28 -21 35 -16 146 -92 150 -103 2 -4 8 -8 12
-8 5 0 20 -10 33 -22 12 -13 43 -42 68 -64 90 -84 164 -177 231 -289 49 -81
129 -270 142 -335 3 -14 8 -36 11 -50 17 -64 34 -161 40 -225 12 -135 7 -390
-9 -494 -3 -14 -7 -46 -11 -71 -12 -82 -16 -104 -31 -180 -21 -106 -70 -290
-95 -358 -11 -31 -25 -71 -30 -89 -27 -90 -138 -312 -217 -432 -31 -47 -58
-88 -62 -91 -3 -3 -21 -25 -40 -50 -52 -69 -207 -220 -280 -273 -36 -26 -69
-50 -75 -55 -38 -28 -95 -61 -95 -55 0 5 -4 3 -8 -3 -10 -16 -108 -64 -116
-57 -3 4 -6 1 -6 -5 0 -7 -9 -12 -20 -12 -11 0 -20 -4 -20 -8 0 -5 -6 -9 -12
-10 -7 0 -53 -15 -103 -32 -49 -18 -103 -34 -120 -37 -16 -2 -64 -11 -105 -19
-41 -8 -106 -17 -145 -19 -38 -2 -72 -5 -75 -5 -10 -3 -216 2 -255 6 -95 9
-123 12 -175 19 -30 4 -64 9 -75 12 -11 2 -35 6 -53 8 -18 2 -61 11 -95 20
-34 9 -72 19 -85 21 -26 5 -166 50 -197 63 -11 5 -45 19 -75 31 -111 45 -329
164 -395 217 -68 54 -139 117 -179 158 -67 69 -166 191 -166 204 0 6 -4 11 -9
11 -12 0 -98 176 -149 305 -66 166 -112 292 -112 307 0 8 -3 18 -7 22 -5 4 -8
11 -9 14 -1 15 -26 98 -32 107 -3 5 -7 16 -8 25 -1 8 -10 42 -19 75 -10 33
-18 65 -19 70 -1 6 -5 16 -9 23 -5 6 -6 12 -3 12 2 0 -4 30 -14 68 -10 37 -21
83 -24 102 -17 96 -21 105 -47 103 -28 -2 -83 -11 -86 -14 -4 -2 -4 -2 -153
-35 -14 -3 -32 -7 -40 -9 -8 -2 -18 -4 -22 -4 -8 -1 -3 -51 8 -101 4 -14 8
-41 9 -60 2 -19 6 -50 9 -67 3 -18 8 -45 10 -60 3 -16 7 -46 11 -68 3 -22 8
-60 11 -85 7 -64 13 -110 18 -150 10 -77 30 -281 40 -425 19 -253 27 -388 31
-575 2 -85 4 -162 4 -171 1 -9 13 -22 28 -30 16 -8 30 -17 33 -20 20 -23 335
-192 480 -257 79 -35 223 -92 242 -96 7 -2 25 -8 40 -14 15 -6 53 -18 85 -27
32 -9 64 -18 71 -20 7 -3 14 -5 17 -5 3 -1 19 -6 37 -12 41 -12 110 -29 203
-48 28 -6 61 -13 75 -16 14 -3 39 -7 55 -9 17 -2 41 -6 55 -9 32 -7 84 -15
140 -21 25 -3 61 -7 80 -10 19 -3 86 -7 148 -10 62 -2 117 -7 122 -10 5 -3 18
-1 29 5 13 7 22 7 26 0 4 -6 11 -8 16 -5 5 3 71 8 146 11 185 7 183 7 183 14
0 3 21 5 48 6 77 2 142 9 142 15 0 3 6 6 13 6 35 2 120 17 187 34 41 10 86 20
100 23 14 3 41 10 60 16 19 6 46 13 60 16 14 2 34 8 45 13 11 5 56 21 100 36
154 52 404 160 495 215 8 5 49 28 90 51 95 53 360 228 381 251 9 10 20 18 25
18 5 0 27 16 49 35 22 19 45 38 50 43 62 46 242 209 289 261 17 19 47 51 66
71 19 20 47 52 61 71 15 18 35 43 46 54 91 98 346 518 346 573 0 6 4 12 9 12
4 0 8 9 8 20 0 11 4 20 8 20 5 0 9 6 9 13 1 6 19 63 42 125 22 61 37 112 34
112 -3 0 0 6 6 14 6 8 11 18 10 22 -2 5 3 29 11 54 7 25 14 52 15 60 2 8 10
53 20 99 37 187 46 326 32 506 -7 82 -10 104 -28 190 -17 87 -30 126 -102 333
-7 17 -15 32 -19 32 -5 0 -8 5 -8 11 0 6 -9 24 -21 40 -11 16 -18 29 -14 29 3
0 -5 15 -19 33 -15 19 -26 39 -26 45 0 7 -4 12 -10 12 -5 0 -10 6 -10 14 0 8
-3 16 -7 18 -5 2 -28 30 -53 63 -69 91 -242 261 -312 307 -14 9 -33 24 -42 33
-9 9 -16 13 -16 8 0 -4 -4 -3 -8 2 -10 15 -107 75 -120 75 -5 0 -12 3 -14 8
-5 12 -199 113 -275 143 -13 5 -33 14 -45 19 -25 11 -231 81 -236 80 -1 -1
-38 7 -81 17 l-79 17 150 89 c225 133 486 309 643 434 17 13 45 36 64 51 73
57 289 280 336 347 27 39 54 75 60 81 5 6 19 28 30 50 11 21 23 41 27 44 9 8
118 228 118 240 0 6 7 24 15 40 8 16 16 37 18 47 1 10 5 23 9 28 5 8 30 95 43
150 1 6 5 21 8 35 4 14 9 39 11 55 2 17 5 30 6 30 1 0 4 16 18 136 12 100 5
335 -13 409 -1 3 -5 25 -9 50 -14 79 -52 211 -76 265 -78 174 -142 295 -162
303 -4 2 -8 9 -8 16 0 7 -11 25 -24 39 -14 15 -29 33 -33 41 -16 29 -90 112
-173 196 -113 113 -215 191 -406 307 -75 46 -363 173 -391 173 -7 0 -21 4 -31
9 -16 9 -147 49 -182 56 -8 2 -42 10 -75 18 -33 9 -77 18 -99 21 -21 4 -41 8
-45 11 -4 2 -29 6 -55 10 -27 3 -51 7 -55 9 -3 2 -31 7 -61 11 -30 3 -66 8
-80 10 -86 12 -475 27 -483 18z"/>
<path d="M9758 11425 c-2 -2 -55 -6 -118 -9 -63 -4 -128 -8 -145 -11 -16 -2
-59 -6 -95 -10 -65 -5 -115 -11 -180 -21 -19 -2 -48 -6 -65 -8 -47 -7 -96 -15
-175 -31 -14 -3 -38 -7 -55 -9 -16 -2 -41 -6 -55 -10 -58 -14 -286 -68 -303
-71 -9 -2 -21 -6 -25 -9 -5 -3 -19 -7 -33 -10 -13 -2 -62 -16 -109 -31 -47
-15 -89 -28 -95 -29 -5 -1 -15 -5 -22 -9 -6 -4 -39 -16 -71 -26 -54 -17 -87
-30 -202 -78 -60 -25 -71 -30 -240 -112 -91 -44 -183 -92 -205 -105 -22 -14
-53 -32 -70 -40 -59 -30 -366 -236 -395 -266 -3 -3 -30 -24 -60 -47 -30 -23
-67 -53 -81 -65 -14 -13 -52 -45 -85 -73 -56 -48 -289 -279 -364 -361 -51 -56
-168 -199 -220 -269 -25 -33 -47 -62 -50 -65 -10 -10 -89 -128 -140 -210 -115
-183 -228 -401 -315 -605 -9 -22 -18 -44 -19 -50 -1 -5 -9 -26 -18 -45 -29
-68 -134 -388 -139 -425 -1 -2 -10 -37 -20 -77 -23 -85 -19 -64 -63 -298 -31
-167 -44 -245 -51 -320 -1 -14 -5 -54 -9 -90 -12 -122 -16 -175 -22 -285 -7
-148 -10 -475 -4 -475 3 0 6 -46 6 -103 2 -146 11 -255 39 -475 7 -53 30 -187
39 -232 3 -14 10 -47 16 -75 6 -27 13 -61 16 -75 3 -14 7 -36 10 -50 2 -14 7
-32 10 -40 3 -8 8 -28 11 -45 3 -16 9 -38 15 -48 5 -10 7 -21 4 -24 -3 -4 -2
-11 3 -17 6 -7 12 -23 14 -36 3 -14 25 -84 50 -156 141 -412 350 -788 621
-1114 66 -79 329 -348 392 -400 10 -8 45 -37 79 -63 33 -26 67 -54 76 -61 43
-35 238 -166 248 -166 6 0 11 -3 11 -7 0 -5 10 -13 23 -19 12 -6 75 -41 141
-78 65 -36 120 -66 123 -66 2 0 43 -19 91 -41 87 -42 350 -146 387 -155 17 -3
73 -21 135 -42 8 -3 20 -6 25 -7 6 -2 30 -8 55 -16 25 -7 50 -13 55 -15 6 -1
42 -10 80 -19 39 -10 79 -19 90 -21 11 -1 21 -3 23 -4 2 -3 2 -3 57 -14 47
-11 59 -13 102 -20 17 -3 58 -10 90 -15 32 -6 74 -13 93 -15 19 -3 71 -10 115
-16 44 -7 103 -13 130 -16 28 -2 75 -6 105 -9 30 -3 93 -8 140 -12 120 -9 838
-9 1000 1 211 13 343 23 400 31 19 2 67 7 105 11 39 4 81 8 95 9 32 4 119 16
145 21 10 2 35 6 55 9 33 5 47 8 99 19 10 2 34 7 52 10 19 3 124 24 234 47
110 22 209 43 220 45 11 2 56 11 100 20 44 9 87 18 95 19 8 2 15 4 15 5 0 1
11 3 25 5 14 1 52 9 85 18 33 9 74 18 90 21 17 3 41 7 55 11 14 3 36 7 50 10
14 3 40 9 59 14 18 6 36 10 40 9 3 0 8 1 11 2 3 1 14 3 24 5 11 2 49 11 85 19
37 9 77 18 91 20 14 3 25 5 25 6 0 1 14 4 30 6 17 3 44 9 60 14 17 5 44 12 60
15 77 13 92 16 120 25 17 5 66 16 110 24 111 22 114 23 168 35 26 6 64 14 83
17 20 3 46 8 58 10 11 2 35 7 51 10 17 3 37 7 45 9 8 2 20 4 26 4 12 1 12 79
0 366 -11 265 -17 440 -21 648 -2 115 -6 211 -9 214 -3 3 -1 14 4 24 6 10 6
20 2 23 -9 6 -8 1058 2 1221 12 209 31 437 42 500 12 75 102 205 141 205 7 0
13 4 13 8 0 13 172 66 276 85 10 2 37 8 59 14 22 6 101 25 175 43 166 39 153
36 223 53 31 8 57 12 57 9 0 -2 7 1 15 8 8 7 15 10 15 7 0 -3 15 -1 33 4 30 9
48 14 87 24 8 2 25 4 38 4 l22 1 -2 162 -3 161 -33 1 c-17 1 -32 -1 -32 -4 0
-3 -42 -5 -93 -6 -50 -1 -150 -4 -222 -7 -418 -21 -1109 -26 -1670 -13 -591
13 -785 17 -995 21 -118 2 -217 4 -220 5 -19 5 -142 1 -148 -4 -4 -4 -7 -75
-7 -157 l0 -149 35 -10 c19 -5 46 -11 60 -14 14 -2 26 -5 28 -7 1 -1 11 -3 22
-4 11 -1 22 -4 25 -5 14 -7 69 -19 110 -24 43 -5 85 -12 125 -22 14 -4 35 -8
47 -9 12 -2 37 -8 55 -14 18 -6 44 -12 58 -15 14 -3 50 -12 80 -21 30 -8 60
-17 65 -18 52 -14 242 -81 249 -88 6 -5 18 -9 29 -9 31 0 124 -104 136 -152 1
-4 7 -22 12 -40 5 -18 12 -60 15 -93 3 -33 7 -85 10 -115 2 -30 6 -84 8 -120
2 -36 5 -88 7 -116 1 -27 -1 -55 -5 -62 -4 -7 -2 -12 4 -12 6 0 8 -5 5 -10 -4
-6 -8 -320 -10 -698 -3 -580 -9 -982 -19 -1276 l-2 -59 -68 -30 c-38 -16 -76
-30 -85 -32 -9 -2 -53 -17 -98 -33 -45 -17 -84 -27 -87 -24 -3 3 -6 1 -6 -5 0
-6 -17 -14 -37 -19 -21 -4 -40 -8 -43 -9 -3 0 -36 -11 -75 -22 -60 -19 -134
-40 -170 -49 -5 -1 -37 -9 -70 -18 -33 -8 -72 -17 -87 -20 -15 -3 -31 -7 -36
-10 -5 -3 -31 -8 -58 -12 -27 -3 -52 -8 -57 -11 -7 -4 -20 -7 -87 -17 -19 -3
-57 -10 -85 -15 -57 -11 -115 -20 -171 -26 -21 -2 -48 -6 -59 -9 -11 -2 -56
-7 -100 -10 -44 -4 -91 -9 -105 -11 -87 -15 -652 -28 -674 -16 -6 2 -35 6 -65
7 -54 3 -127 9 -221 19 -43 5 -294 47 -354 60 -27 6 -100 23 -191 46 -22 6
-47 12 -55 14 -25 6 -273 92 -315 109 -66 28 -76 32 -190 85 -60 28 -117 56
-125 61 -8 6 -27 15 -42 21 -16 6 -28 15 -28 20 0 5 -5 9 -12 9 -15 0 -181
100 -186 112 -2 4 -8 8 -14 8 -10 0 -184 124 -238 169 -14 11 -40 33 -59 48
-106 87 -287 264 -351 343 -19 24 -40 48 -45 54 -6 6 -26 31 -45 56 -19 25
-37 47 -40 50 -14 13 -142 215 -188 295 -64 114 -155 308 -183 390 -7 22 -16
45 -19 50 -4 6 -22 57 -40 115 -18 58 -35 112 -38 120 -3 8 -6 21 -8 29 -2 13
-14 55 -19 71 -6 19 -44 177 -50 210 -3 14 -7 36 -9 50 -3 14 -8 41 -10 60 -3
19 -8 46 -10 60 -10 53 -33 236 -41 325 -16 167 -28 777 -16 800 3 5 6 39 7
75 1 61 10 173 19 230 4 26 15 127 20 170 1 14 5 34 8 45 3 11 9 44 12 72 5
40 61 305 79 368 1 6 8 30 15 55 7 25 14 52 16 60 3 16 62 194 72 220 3 8 7
20 9 25 19 73 213 487 234 500 6 3 10 15 10 25 0 10 3 20 8 22 4 2 34 46 66
98 32 52 62 97 65 100 4 3 17 22 30 43 13 21 28 43 34 50 7 6 25 30 41 52 143
193 369 419 568 566 115 85 110 82 134 96 121 75 224 135 231 135 4 0 20 9 35
19 14 10 28 19 31 19 3 0 38 15 79 34 130 61 374 149 448 162 14 3 36 9 50 14
28 10 162 40 200 45 14 2 36 6 50 9 28 7 69 14 120 20 19 3 51 7 70 10 268 39
772 39 1058 0 133 -18 174 -24 277 -44 28 -5 61 -11 75 -14 14 -2 32 -7 40
-10 8 -3 32 -8 53 -11 21 -3 48 -10 60 -17 12 -6 23 -10 25 -9 3 3 61 -8 92
-19 14 -4 59 -18 100 -30 41 -12 87 -28 102 -36 15 -8 31 -15 35 -14 5 0 31
-8 58 -17 28 -10 52 -18 55 -18 3 -1 18 -7 33 -13 16 -7 31 -12 34 -12 5 0 30
-11 123 -53 25 -11 74 -38 109 -59 34 -21 67 -38 71 -38 5 0 10 -4 12 -8 2 -5
25 -23 53 -42 72 -49 89 -64 198 -171 53 -53 97 -101 97 -108 0 -6 4 -11 8
-11 5 0 15 -12 23 -27 8 -16 17 -30 20 -33 11 -8 105 -200 144 -293 55 -135
58 -141 61 -152 1 -5 21 -64 45 -130 37 -108 95 -286 104 -325 2 -8 13 -46 24
-85 34 -113 38 -128 51 -178 l13 -47 51 0 c102 0 130 1 137 6 4 2 10 0 14 -6
4 -6 11 -8 16 -4 6 3 41 6 79 6 38 0 73 -3 79 -6 5 -4 12 -2 16 4 4 6 11 7 17
4 13 -8 29 16 20 30 -3 6 -7 29 -8 51 -2 62 -14 244 -19 300 -2 28 -7 100 -10
160 -3 61 -8 151 -11 200 -3 50 -7 149 -9 220 -3 72 -7 186 -9 255 -5 126 -7
786 -3 937 l2 81 -40 7 c-22 4 -47 9 -55 10 -8 1 -26 5 -40 8 -40 8 -149 28
-178 32 -15 2 -58 10 -97 18 -61 13 -93 19 -181 32 -11 1 -45 8 -75 14 -30 6
-67 13 -84 16 -16 4 -41 8 -55 10 -23 3 -54 9 -106 19 -31 6 -96 18 -119 21
-11 2 -20 4 -20 5 0 1 -13 3 -30 5 -16 2 -41 6 -55 9 -14 3 -38 8 -55 11 -46
7 -95 16 -145 26 -25 5 -58 11 -75 13 -32 4 -73 12 -115 21 -14 3 -38 8 -55
10 -16 2 -41 6 -55 9 -26 5 -151 26 -185 31 -26 4 -83 13 -115 20 -14 2 -48 6
-75 9 -28 2 -71 7 -95 10 -90 13 -226 24 -355 30 -22 1 -45 4 -50 8 -6 4 -17
3 -24 -1 -7 -5 -31 -5 -53 -1 -38 7 -684 11 -690 5z"/>
<path d="M9757 10083 c-3 -3 -34 -7 -69 -9 -108 -5 -269 -21 -313 -31 -11 -2
-36 -6 -55 -8 -19 -2 -46 -6 -60 -9 -28 -6 -127 -27 -150 -31 -8 -2 -15 -4
-15 -5 0 -1 -11 -3 -25 -6 -14 -2 -36 -8 -50 -13 -14 -6 -41 -13 -60 -17 -41
-9 -41 -9 -60 -17 -8 -3 -33 -11 -55 -17 -65 -20 -248 -92 -270 -106 -11 -8
-27 -14 -36 -14 -10 0 -19 -3 -21 -7 -1 -5 -41 -27 -88 -51 -113 -58 -144 -76
-148 -84 -2 -5 -8 -8 -12 -8 -9 0 -171 -107 -180 -119 -3 -4 -21 -18 -40 -31
-140 -98 -368 -328 -496 -503 -30 -40 -57 -76 -61 -82 -19 -24 -105 -158 -132
-207 -77 -137 -195 -399 -205 -453 -2 -13 -9 -33 -16 -44 -6 -12 -8 -21 -4
-21 3 0 2 -6 -4 -13 -6 -7 -13 -24 -15 -37 -3 -14 -11 -45 -18 -70 -7 -25 -13
-49 -14 -55 -2 -5 -10 -44 -19 -85 -23 -110 -34 -175 -41 -240 -2 -25 -7 -76
-11 -115 -8 -80 -8 -423 0 -535 10 -136 16 -202 21 -228 3 -15 8 -43 11 -62
14 -90 38 -203 64 -300 12 -41 22 -82 25 -90 2 -8 10 -34 19 -57 8 -24 13 -43
10 -43 -2 0 1 -10 8 -22 6 -13 13 -27 14 -33 2 -11 40 -110 54 -140 118 -259
184 -376 298 -528 88 -116 78 -105 197 -227 98 -100 228 -208 345 -287 78 -52
276 -163 298 -167 7 -1 18 -8 24 -14 7 -7 19 -12 28 -12 9 0 20 -4 26 -9 14
-13 239 -99 304 -116 8 -3 49 -14 90 -25 77 -22 97 -27 140 -35 14 -3 36 -7
50 -10 37 -8 140 -24 180 -29 19 -2 35 -5 35 -6 0 -5 186 -13 325 -13 241 -1
479 18 634 49 11 2 35 7 51 10 17 2 41 7 55 9 176 32 457 116 654 197 38 15
75 28 82 28 8 0 14 4 14 9 0 5 11 12 24 15 14 3 54 20 89 36 36 17 70 30 76
30 6 0 11 5 11 10 0 6 5 10 10 10 19 0 377 183 390 199 3 3 22 15 42 26 21 11
67 38 103 59 l65 39 -41 76 c-23 42 -58 105 -77 141 -19 36 -36 66 -36 67 -1
1 -40 -17 -87 -40 -92 -45 -211 -101 -299 -140 -98 -43 -362 -144 -367 -139
-2 1 -23 -7 -48 -18 -25 -11 -71 -27 -103 -36 -89 -24 -165 -44 -192 -50 -14
-3 -32 -7 -41 -10 -9 -2 -32 -7 -50 -9 -19 -3 -45 -7 -59 -10 -40 -8 -103 -18
-135 -21 -16 -1 -30 -3 -30 -4 0 -7 -191 -14 -380 -15 -225 0 -343 8 -442 29
-15 4 -41 9 -58 12 -16 3 -48 10 -70 16 -22 6 -44 11 -50 13 -5 1 -17 5 -25 8
-17 6 -122 41 -130 42 -3 1 -22 9 -44 18 -21 9 -40 17 -42 17 -26 0 -356 183
-362 201 -2 5 -8 9 -13 9 -5 0 -40 24 -77 53 -186 145 -318 286 -445 475 -63
94 -173 310 -208 407 -39 110 -70 210 -75 240 -3 17 -9 41 -14 55 -9 27 -31
136 -35 172 -1 13 -3 23 -5 23 -2 0 -5 21 -14 110 -4 39 -9 81 -11 95 -2 14
-7 89 -10 168 -2 79 -7 147 -10 152 -3 5 -2 11 3 14 6 4 8 61 2 61 -4 0 -6 71
-2 79 3 5 6 50 8 100 1 50 5 105 7 121 3 17 8 53 12 80 6 50 12 86 15 95 1 3
2 9 1 13 -1 4 8 42 18 84 11 42 18 80 15 85 -3 4 -1 8 4 8 5 0 9 6 9 14 0 23
55 198 82 261 64 148 104 233 148 313 29 53 53 100 53 104 0 4 4 8 8 8 5 0 15
12 23 28 18 35 59 93 81 113 10 9 18 20 18 24 0 9 36 49 135 148 77 77 200
175 285 227 30 18 66 40 80 49 14 8 27 16 30 17 3 0 43 19 90 41 113 53 308
119 380 129 14 2 48 8 75 14 206 43 661 57 814 26 12 -3 44 -8 70 -11 55 -8
78 -12 111 -20 14 -3 36 -8 50 -11 38 -9 42 -10 87 -23 119 -33 309 -105 323
-120 3 -3 23 -15 45 -26 43 -22 160 -112 215 -166 93 -92 144 -174 225 -368
74 -176 160 -475 180 -618 6 -45 10 -53 28 -54 25 -1 265 -1 285 0 10 1 12 11
7 39 -3 20 -8 62 -10 92 -2 30 -7 84 -10 120 -22 241 -29 462 -28 853 0 213 0
387 -1 387 -1 0 -26 9 -56 21 -30 11 -62 22 -71 24 -9 2 -47 13 -85 25 -65 21
-191 57 -224 65 -8 3 -40 11 -70 20 -30 8 -67 17 -82 20 -14 3 -64 14 -110 24
-46 11 -96 22 -113 25 -16 3 -40 7 -51 10 -12 2 -38 7 -58 10 -20 3 -53 10
-74 14 -21 5 -52 8 -70 8 -18 -1 -32 2 -32 5 0 3 -6 6 -12 6 -18 1 -118 12
-148 18 -48 8 -219 22 -354 30 -49 2 -91 7 -94 9 -2 3 -13 1 -23 -5 -11 -5
-19 -6 -19 -2 0 4 -47 8 -105 8 -58 0 -105 -3 -105 -7 0 -4 -11 -3 -24 2 -13
5 -26 6 -29 3z"/>
</g>
</svg>
