<svg xmlns="http://www.w3.org/2000/svg" width="90.266" height="52.993" viewBox="0 0 90.266 52.993"><defs><style>.a{fill:#fff;}</style></defs><g transform="translate(0 7.001)"><g transform="translate(0 -7.001)"><path class="a" d="M5.7,11.984,9.129,3.675A14.531,14.531,0,0,1,15.162.66,17.95,17.95,0,0,1,22.354.581q5.936,1.048,8.858,4.728a9.888,9.888,0,0,1,2.125,8.2,11.514,11.514,0,0,1-2.482,5.4q-1.945,2.369-7.163,5.341a13.673,13.673,0,0,1,4.5,1.7,10.367,10.367,0,0,1,4.372,4.61,10.459,10.459,0,0,1,.658,6.283q-1.251,7.092-8.346,11.627A21.1,21.1,0,0,1,9.32,51.516,21.135,21.135,0,0,1,5.064,50.29a23.568,23.568,0,0,1-4.07-2.137A69.443,69.443,0,0,0,0,37.07L2.084,36.6a31.32,31.32,0,0,0,2.4,7.359,9.572,9.572,0,0,0,3.1,3.157,13.58,13.58,0,0,0,5.093,1.865q5.293.933,8.833-1.808t4.579-8.635q.881-4.976-1.146-8.152a8.713,8.713,0,0,0-6.151-3.906,15.032,15.032,0,0,0-7.023.618l-.432-.44,1.38-3.9a27.93,27.93,0,0,0,2.751.7,9.771,9.771,0,0,0,7.513-1.441,9.551,9.551,0,0,0,3.973-6.54,8.679,8.679,0,0,0-1.268-6.752,8.586,8.586,0,0,0-5.82-3.484,11.485,11.485,0,0,0-5.092.248A9.864,9.864,0,0,0,10.844,7.4a12,12,0,0,0-1.707,2.642L7.889,12.364Z" transform="translate(0 -0.22)"/><path class="a" d="M288.368,25.727V27.7l-5.482,1.321a2.578,2.578,0,0,0-1.255.628,2.289,2.289,0,0,0-.537,1.2,64.843,64.843,0,0,0-.286,8.062q0,3.869.286,10.5-1.576.251-6.772,1.434-6.809,1.5-8.6,1.719a60.015,60.015,0,0,1-7.383.43q-12.612,0-19.386-6.683T232.18,28.093q0-12.505,7.938-20.3T261.241,0a48.6,48.6,0,0,1,6.311.395q.681.07,12.254,2.185-.04,1.97-.04,3.153,0,4.8.465,10.861h-2.687q-1.653-6.131-3.1-8.065a10.124,10.124,0,0,0-4.717-3.154,25.859,25.859,0,0,0-9.317-1.648q-11.108,0-16.7,8.385-3.906,5.914-3.906,14.548,0,11.037,6.182,16.732t15.6,5.7A35.007,35.007,0,0,0,274.1,46.581q.147-3.87.147-11.359a27.548,27.548,0,0,0-.214-4.766,1.908,1.908,0,0,0-.86-1.111,21.434,21.434,0,0,0-4.874-1.321l-1.4-.323V25.727l12.256.251Q283.207,25.978,288.368,25.727Z" transform="translate(-198.102 0.001)"/><path class="a" d="M328.832,85.569l.979,1.77a32.737,32.737,0,0,1-7.192,3.47,22.876,22.876,0,0,1-7.116,1.118,17.1,17.1,0,0,1-8.488-2.131,13.952,13.952,0,0,1-5.78-6.032,19,19,0,0,1-1.965-8.66,16.967,16.967,0,0,1,5.058-12.693q5.058-4.939,13.4-4.932a36.339,36.339,0,0,1,11.4,2.1q-.048,2.055-.047,3.073a59.167,59.167,0,0,0,.349,6.266h-1.964a18.666,18.666,0,0,0-1.839-5.613,6.651,6.651,0,0,0-3.164-2.457,13.933,13.933,0,0,0-5.4-.92q-6.752,0-10.168,4.8a15.905,15.905,0,0,0-2.654,9.41q0,6.752,3.735,10.656a12.916,12.916,0,0,0,9.785,3.9,19.116,19.116,0,0,0,5.073-.675A34.275,34.275,0,0,0,328.832,85.569Z" transform="translate(-255.345 -49.043)"/></g></g></svg>