<svg xmlns="http://www.w3.org/2000/svg" viewBox="0 0 1864.35 871.85"><defs><style>.cls-1{fill:#fff;}</style></defs><title>Asset 1</title><g id="Layer_2" data-name="Layer 2"><g id="Layer_1-2" data-name="Layer 1"><path class="cls-1" d="M459.38,436.76v16.11l-44.83,10.84q-7,1.76-10.25,5.13c-2.15,2.24-3.62,5.52-4.4,9.81q-2.34,13.19-2.34,65.92,0,31.63,2.34,85.84-12.88,2.05-55.37,11.72-55.66,12.3-70.31,14.06a493,493,0,0,1-60.35,3.51q-103.12,0-158.5-54.63T0,456.09q0-102.24,64.89-166T237.6,226.4a396.93,396.93,0,0,1,51.56,3.23q5.56.59,100.2,17.87-.3,16.11-.3,25.78,0,39.25,3.81,88.77h-22q-13.48-50.1-25.34-65.92T307,270.35q-35.16-13.47-76.17-13.48-90.83,0-136.52,68.56Q62.4,373.76,62.4,444.37q0,90.24,50.54,136.82t127.59,46.58q48.63,0,102.24-20.51,1.17-31.63,1.18-92.87,0-33.11-1.76-39a15.56,15.56,0,0,0-7-9.08q-6.75-4.11-39.85-10.84l-11.42-2.64V436.76l100.19,2.05Q417.18,438.81,459.38,436.76Z"/><path class="cls-1" d="M568.26,593.92l7,10.81-36.48,26.91a55.62,55.62,0,0,1-15.59,7.51,84,84,0,0,1-24,3.48q-29.89,0-51.06-24T426.9,553.82q0-43.94,25.4-70.49t62.05-26.55q28.42,0,43.91,15.65t15.86,47.89a66.36,66.36,0,0,0-14,10.8q-13-.18-16.31-.18-48.55,0-84.48,1.46-.18,41,13.92,62.07,14.1,21.25,37.72,21.24a73.46,73.46,0,0,0,24.9-4.67Q548.86,606.38,568.26,593.92Zm-26.55-80.2q-1.1-18.12-8.07-27.46-10.27-13.74-27.71-13.73a39.44,39.44,0,0,0-26.8,10.34Q467.39,493.22,461.7,517c4.53.12,7.95.18,10.28.18Q502.07,517.2,541.71,513.72Z"/><path class="cls-1" d="M580.86,492.48V481.86a214.56,214.56,0,0,0,59.69-23.25l5,3.11a248.4,248.4,0,0,0-3.12,32l23.26-23.08a43.82,43.82,0,0,1,13.73-8.05,63.83,63.83,0,0,1,22.52-4q26.19,0,39.55,17.39,9,11.53,9,39.74l-.55,44.31q0,44.49,1.09,52.55c.61,3.66,1.77,6.23,3.48,7.69s7.51,3.36,17.4,5.68q2.74.74,8.24,2v10.25q-21.66-2-38.53-2-14.68,0-50.28,2V628q21.39-6.22,24.06-8.42c1.78-1.47,2.86-3.85,3.22-7.14q2-18.13,2-55.48,0-39.91-1.65-48.16-2.56-12.09-10.8-18.68a30.7,30.7,0,0,0-19.78-6.59q-12.08,0-23.8,7.05a43.19,43.19,0,0,0-17.3,18.95q-5.6,11.91-5.59,35.16,0,65.91,2.75,71.32t21.42,10.16q2.38.55,7,1.83v10.25q-24.6-2-41.29-2-16.14,0-48.07,2V628q21.75-5.12,24.71-7.51,1.83-1.46,2.58-7.69,2-17.38,2-47.42,0-62.07-1.28-67.38-2-7.69-10.81-7.69A96.7,96.7,0,0,0,588,491.57C586.41,491.81,584,492.12,580.86,492.48Z"/><path class="cls-1" d="M928.17,593.92l7,10.81-36.48,26.91a55.56,55.56,0,0,1-15.58,7.51,84.08,84.08,0,0,1-24,3.48q-29.89,0-51.06-24t-21.17-64.82q0-43.94,25.39-70.49t62.06-26.55q28.41,0,43.9,15.65T934,520.32a66.36,66.36,0,0,0-14,10.8q-13-.18-16.31-.18-48.56,0-84.47,1.46-.19,41,13.91,62.07,14.1,21.25,37.72,21.24a73.37,73.37,0,0,0,24.9-4.67Q908.76,606.38,928.17,593.92Zm-26.55-80.2q-1.1-18.12-8.07-27.46-10.27-13.74-27.71-13.73A39.46,39.46,0,0,0,839,482.87Q827.3,493.22,821.61,517c4.53.12,7.95.18,10.28.18Q862,517.2,901.62,513.72Z"/><path class="cls-1" d="M941.69,492.48V482.23q34.14-8.61,58.24-23.62l4.75,3.49a285.37,285.37,0,0,0-3.48,39q22.14-27,30.94-33.11a35.49,35.49,0,0,1,20.69-6.08q7.88,0,17.58,3.85-4,18.76-6.59,38.27h-9.16q-1.65-8.79-5.49-12.73a11.78,11.78,0,0,0-8.61-3.93q-7.32,0-15.74,6.76-12.46,10.06-18,23.13t-5.58,37q0,42.42,2.38,57.05a13,13,0,0,0,5,8.6q4.13,3.1,25.91,8v10.25q-22.89-2-41.56-2-15.57,0-51.46,2V628q25.1-6.22,28.29-9.61T973,600.15l.36-39.73q0-58.41-1.09-62.81-1.83-7.5-10.2-7.51a110.07,110.07,0,0,0-15.65,1.83Z"/><path class="cls-1" d="M1096.37,513.91l-11.9-1.28a341.22,341.22,0,0,0,5.13-37.91q35.64-16.11,64.35-16.11a66.85,66.85,0,0,1,22.48,3.57q10.07,3.57,15.91,9.89a42.06,42.06,0,0,1,8.87,15.1q3,8.79,3,28l-1.64,75.62q0,15.39,3.47,20.14a10.65,10.65,0,0,0,9,4.76q6.59,0,20.69-9.88l5.67,7.5q-25.82,23.07-28.19,24.54a25.59,25.59,0,0,1-12.82,2.93q-11.91,0-18.4-5.95t-8.7-20.05q-22,17-32.59,21.51a58.78,58.78,0,0,1-23.08,4.49q-20.33,0-32.77-12.36t-12.45-31.59a47.87,47.87,0,0,1,17-37.72q6.4-5.29,21.6-12.81,35.71-17.4,62.26-28-.91-25.81-8.59-34.24t-23.56-8.42q-15,0-25.67,9.24T1096.37,513.91Zm76.91,20.32q-47.79,21.42-57.77,31.22a31.76,31.76,0,0,0-10,23.53q0,13.74,7.51,22t17.57,8.24q10.44,0,22.62-6.86t16.11-15.48q3.93-8.6,3.94-31.31Z"/><path class="cls-1" d="M1287.32,418.33h10.62L1293.73,465l50.72-.55,1.46,2.9a141.18,141.18,0,0,0-8.42,16q-21.62-1-43.76-1.28l-1.65,94.11v1.1q0,21.79,4.85,31.4t16.57,9.62q9.7,0,25.64-8.24l5.31,10.43q-20,12.46-30.4,16.39t-18.13,3.94q-12.08,0-20.5-6.32A30,30,0,0,1,1264.25,617q-1.65-6.21-1.65-38.08,0-34.06,2-96.86-12.81.31-26.55,1.28v-9.89a82.27,82.27,0,0,0,26.64-19Q1276,442.42,1287.32,418.33Z"/><path class="cls-1" d="M1347.52,490.47V480.22a230.36,230.36,0,0,0,57.86-23.44l4.76,3.84q-3.66,38.82-3.66,110,0,33.33,1.65,41c.73,3.41,2,5.89,3.84,7.41s8.18,3.88,19,7q2,.55,6,1.83v10.25q-24-2-39.37-2-9.33,0-50.17,2V628q24.72-6,27.83-11.08t3.12-52.64l-.19-39v-7.51q0-20.5-2.74-24.72t-8.79-4.21Q1362.9,488.82,1347.52,490.47Zm45.6-121.77a19.23,19.23,0,0,1,13.64,32.78,18.4,18.4,0,0,1-13.64,5.68,18.18,18.18,0,0,1-13.46-5.68,19.33,19.33,0,0,1,0-27.19A18.36,18.36,0,0,1,1393.12,368.7Z"/><path class="cls-1" d="M1447.28,552.73q0-44.31,25.11-70.13t66-25.82q38.67,0,61.31,23.25t22.64,65q0,45-25.39,71.32t-65.71,26.28q-39,0-61.5-23.44T1447.28,552.73Zm35.15-15.94q0,30,3.86,44.32,6,23.07,19.16,34.7A44.64,44.64,0,0,0,1536,627.43q22.55,0,37-17.12t14.49-55q0-42.48-16.42-62.9T1532.51,472q-22,0-36,16T1482.43,536.79Z"/><path class="cls-1" d="M1632.18,492.48V481.86a214.56,214.56,0,0,0,59.69-23.25l4.94,3.11a248.41,248.41,0,0,0-3.11,32L1717,470.69a43.82,43.82,0,0,1,13.73-8.05,63.83,63.83,0,0,1,22.52-4q26.19,0,39.55,17.39,9,11.53,9,39.74l-.55,44.31q0,44.49,1.1,52.55c.61,3.66,1.77,6.23,3.48,7.69s7.51,3.36,17.4,5.68c1.83.49,4.57,1.16,8.24,2v10.25q-21.66-2-38.54-2-14.67,0-50.27,2V628q21.38-6.22,24.06-8.42t3.22-7.14q2-18.13,2-55.48,0-39.91-1.65-48.16-2.57-12.09-10.8-18.68a30.72,30.72,0,0,0-19.78-6.59q-12.09,0-23.8,7.05a43.21,43.21,0,0,0-17.31,18.95q-5.58,11.91-5.58,35.16,0,65.91,2.74,71.32t21.43,10.16q2.37.55,7,1.83v10.25q-24.6-2-41.29-2-16.14,0-48.07,2V628q21.75-5.12,24.7-7.51,1.85-1.46,2.58-7.69,2-17.38,2-47.42,0-62.07-1.28-67.38-2-7.69-10.81-7.69a96.7,96.7,0,0,0-12.63,1.28C1637.73,491.81,1635.35,492.12,1632.18,492.48Z"/><path class="cls-1" d="M159.65,816.41l4.66,8.42a154.69,154.69,0,0,1-34.2,16.52,108.86,108.86,0,0,1-33.87,5.32,81.38,81.38,0,0,1-40.39-10.14,66.35,66.35,0,0,1-27.5-28.71Q19,789.25,19,766.64q0-36.9,24.06-60.41t63.69-23.49q24.36,0,54.23,10-.22,9.75-.22,14.63a281.86,281.86,0,0,0,1.66,29.82h-9.31q-4.1-19.39-8.75-26.71t-15.05-11.7q-10.41-4.38-25.69-4.38-32.12,0-48.39,22.84Q42.6,735.06,42.6,762q0,32.14,17.78,50.71t46.56,18.56a91.06,91.06,0,0,0,24.14-3.21Q142.81,824.83,159.65,816.41Z"/><path class="cls-1" d="M176.59,765.75q0-36.35,23.44-59.68t60.24-23.33q34.25,0,54.53,20.61t20.29,56.75q0,40.13-22.83,63.35t-60.08,23.22q-34.92,0-55.25-21.06T176.59,765.75Zm24.27-3.27q0,36.62,16,55t40.51,18.36a49.7,49.7,0,0,0,28.71-8.55q12.52-8.53,18.95-25a99.36,99.36,0,0,0,6.43-36.44q0-25.06-8.2-41.6T283,700.53a54.9,54.9,0,0,0-56.75,1.55Q213.16,710.8,207,727.27A99.85,99.85,0,0,0,200.86,762.48Z"/><path class="cls-1" d="M340.05,692.6v-6.54q14,1.23,22.12,1.22,6.52,0,23.33-1.22L417,725.41q4.32,5.21,66.72,80.8.1-15.51.11-22.5,0-16.51-1-60.41-.45-20.5-1.06-22.28a6.84,6.84,0,0,0-2.55-3.21q-1.93-1.44-15.46-4-1.77-.33-5.21-1.22v-6.54q19.72,1.23,31.37,1.22,11.31,0,31.26-1.22v6.54c-2,.52-3.48.85-4.44,1q-14.85,3.1-16.51,4.1a5.16,5.16,0,0,0-2,2c-.74,1.19-1.26,3.4-1.55,6.65q-.1,2.11-.5,30.21t-.39,54.37q0,31,1.11,52.42l-7.2,3.33-46.22-57.43-60.63-73,.55,65.53q.56,43,1.22,45.89a6.55,6.55,0,0,0,2,3.44q2.43,2.22,16.51,4.66c1.11.14,2.77.48,5,1v6.54q-17-1.22-28.6-1.22-9.75,0-34,1.22V836.8l5.88-1.33q13.31-2.33,15.41-4.32a6.07,6.07,0,0,0,1.77-3.44q1.11-5.09,1.55-38.57.56-47.43.56-56.08,0-27.82-.78-30.93a5.75,5.75,0,0,0-2.88-3.71q-2.44-1.5-20.95-4.6Q344,693.49,340.05,692.6Z"/><path class="cls-1" d="M624.56,728.4h-8.43q-2.88-14.24-6.54-20.79a25.15,25.15,0,0,0-11.14-10.29,37.16,37.16,0,0,0-16.79-3.72q-13.18,0-21,7.32a23.44,23.44,0,0,0-7.82,17.76,22.81,22.81,0,0,0,6.43,16.09q6.32,6.87,30.88,17.37t33.42,21.71a40.54,40.54,0,0,1,8.75,25.42,44.53,44.53,0,0,1-6.6,23.53q-6.6,10.89-19.84,17.38a64.07,64.07,0,0,1-28.54,6.49,111.36,111.36,0,0,1-20.89-2,200.05,200.05,0,0,1-25.11-6.87Q533,822.17,533,796.35h8.54q3.65,16.62,7.58,23.27A29.46,29.46,0,0,0,561,830.54a36.35,36.35,0,0,0,17.48,4.27,37.39,37.39,0,0,0,22.91-7.32q9.84-7.32,9.85-20.53a28.53,28.53,0,0,0-7.1-19.07q-7.2-8.22-31.2-18.58t-32.09-19.9a33.38,33.38,0,0,1-8.09-22.48,40.16,40.16,0,0,1,6.54-21.77q6.54-10.35,19.23-16.39a60.67,60.67,0,0,1,26.33-6q16.39,0,39.68,7.87-.55,16.18-.56,19.5Q624,716.88,624.56,728.4Z"/><path class="cls-1" d="M651.69,729.29h-8.53q2.1-19.29,3.76-43.23,49.07,1.23,70,1.22,17.39,0,63.35-1.22,1.43,24.72,3.32,43.23h-8.31q-5.21-20.28-6.75-23.78a9.79,9.79,0,0,0-4.48-5q-2.92-1.5-14.87-1.5H724.62q-.89,29.49-.88,72.93,0,40.35.88,54.53c.15,2.22.7,3.74,1.67,4.55q1.88,1.56,18.28,4.77c1,.14,2.59.48,4.66,1v6.54q-21.94-1.22-39.13-1.22-16.29,0-33.36,1.22V836.8c2.59-.66,4.55-1.11,5.88-1.33q15.18-2.55,17.51-4.32a5.38,5.38,0,0,0,1.49-2.49q.51-1.6.84-24.55.43-35.48.44-52.54,0-29.82-.44-52.54H676.08l-4.77.11q-6.31,0-8.31,1.33-3.11,1.89-5.55,8Q655.58,713.1,651.69,729.29Z"/><path class="cls-1" d="M786,692.6v-6.54q29.37,1.23,47.1,1.22,10.2,0,19.07-.22,11.75-.45,16.29-.44,21.62,0,32.59,10.19t10.86,27.83A42.53,42.53,0,0,1,907,745.42a43,43,0,0,1-14.24,15.25q-6.76,4.43-19.3,7.87l36.92,48.1q6.87,9,8.65,10.52a24.66,24.66,0,0,0,7.2,4q6.21,2.45,21,5.65v6.54q-17.52-1.22-25.5-1.22a150.72,150.72,0,0,0-18.84,1.22q-5-8.31-13.52-20.89t-10.42-14.91c-.74-.89-1.44-1.81-2.11-2.77L852.4,771.3q-9.87-.22-19.95-1.44l.89,55.86a7.19,7.19,0,0,0,2,5q2.65,2.22,16.63,4.76c1.33.22,3.36.67,6.09,1.33v6.54q-20.06-1.22-35.36-1.22-16.4,0-36.68,1.22V836.8l4.76-1q15.86-3,18-4.94t2.5-6.92q.22-3.23.55-57l-.44-52.09q-.12-12-.61-13.74a4.16,4.16,0,0,0-2.16-2.66q-5.43-2.9-17.18-4.77C790.25,693.49,788.45,693.12,786,692.6Zm46.44,67.83q11.52,1.23,17.84,1.22,20.18,0,29.88-9t9.69-25q0-14-8.59-22.1t-25-8.1q-5.88,0-23.17,1.33Z"/><path class="cls-1" d="M927.86,692.6v-6.54q20.61,1.23,35.58,1.22,15.63,0,36-1.22v6.54q-3.44.78-5.21,1.11-15.63,2.44-17.62,4.21t-2.22,7.43q-.66,15.07-.66,56.75,0,27.82,1.49,37.79A34.4,34.4,0,0,0,982.56,817q5.82,7.1,16,10.92a61.26,61.26,0,0,0,21.72,3.82q17.4,0,28.21-7.2a33.93,33.93,0,0,0,14.3-19.23q3.48-12,3.49-47,0-46.34-.78-54.65-.33-3.65-2.1-5.15t-16.63-4.71c-1-.22-2.62-.59-4.77-1.11v-6.54q21.74,1.23,33,1.22,12.75,0,29-1.22v6.54c-2.06.59-3.6,1-4.63,1.22q-14.67,3-16.66,4.66c-1.32,1.1-2.13,3-2.42,5.76q-1.2,8.76-1.45,51.65-.11,33.15-1.22,42.12-1.44,12.42-5.2,20a47.51,47.51,0,0,1-11.59,14.41,50.15,50.15,0,0,1-17.9,10,91.85,91.85,0,0,1-27.82,4.21,96.17,96.17,0,0,1-28.87-4q-12.69-4-19.68-10.81a43.19,43.19,0,0,1-10.42-16.07q-3.43-9.25-3.43-26.88l.44-50.32q0-28-.22-31.59-.45-5.43-1.66-7.32a5.51,5.51,0,0,0-2.66-2.32q-1.34-.68-15.41-3.44Q931.52,693.6,927.86,692.6Z"/><path class="cls-1" d="M1252.38,816.41l4.65,8.42a154.69,154.69,0,0,1-34.2,16.52,108.75,108.75,0,0,1-33.86,5.32,81.35,81.35,0,0,1-40.39-10.14,66.43,66.43,0,0,1-27.51-28.71,90.28,90.28,0,0,1-9.35-41.18q0-36.9,24.07-60.41t63.69-23.49q24.35,0,54.23,10-.23,9.75-.22,14.63a281.86,281.86,0,0,0,1.66,29.82h-9.31q-4.1-19.39-8.75-26.71T1222,698.75q-10.41-4.38-25.69-4.38-32.11,0-48.39,22.84-12.62,17.85-12.62,44.78,0,32.14,17.77,50.71t46.57,18.56a91.11,91.11,0,0,0,24.14-3.21Q1235.54,824.83,1252.38,816.41Z"/><path class="cls-1" d="M1271.86,729.29h-8.53q2.1-19.29,3.77-43.23,49.05,1.23,70,1.22,17.39,0,63.35-1.22,1.44,24.72,3.32,43.23h-8.31q-5.21-20.28-6.75-23.78a9.74,9.74,0,0,0-4.48-5q-2.92-1.5-14.87-1.5H1344.8q-.9,29.49-.89,72.93,0,40.35.89,54.53c.14,2.22.7,3.74,1.66,4.55q1.88,1.56,18.29,4.77c1,.14,2.58.48,4.65,1v6.54q-21.95-1.22-39.12-1.22-16.3,0-33.37,1.22V836.8c2.59-.66,4.55-1.11,5.88-1.33q15.18-2.55,17.51-4.32a5.47,5.47,0,0,0,1.5-2.49q.5-1.6.83-24.55.43-35.48.44-52.54,0-29.82-.44-52.54h-26.38l-4.77.11q-6.32,0-8.31,1.33-3.11,1.89-5.54,8Q1275.74,713.1,1271.86,729.29Z"/><path class="cls-1" d="M1479.55,686.06v6.54q-3.87.89-5.76,1.22-14.74,2.55-17.07,4.82t-2.33,10.14v3.88l-.55,44.56.33,64.73q0,7.75,2.27,9.87t15.58,3.65c1.7.22,4.17.67,7.42,1.33v6.54q-17.85-1.22-34.36-1.22-17.07,0-37.46,1.22V836.8a40.53,40.53,0,0,1,4.88-1.11q15.74-2.54,18-4.71t2.27-10.91l-.22-5.55.33-40.67q0-62.74-.33-69.39a8,8,0,0,0-2.37-5.65q-2.16-2-16.72-4.77-2-.43-5.85-1.44v-6.54q24.09,1.23,37.63,1.22Q1460.36,687.28,1479.55,686.06Z"/><path class="cls-1" d="M1489.73,765.75q0-36.35,23.44-59.68t60.24-23.33q34.26,0,54.54,20.61t20.28,56.75q0,40.13-22.83,63.35t-60.08,23.22q-34.9,0-55.25-21.06T1489.73,765.75Zm24.27-3.27q0,36.62,16,55t40.51,18.36a49.7,49.7,0,0,0,28.71-8.55q12.52-8.53,19-25a99.36,99.36,0,0,0,6.43-36.44q0-25.06-8.2-41.6t-20.28-23.68a54.9,54.9,0,0,0-56.75,1.55q-13.08,8.71-19.23,25.19A99.63,99.63,0,0,0,1514,762.48Z"/><path class="cls-1" d="M1653.2,692.6v-6.54q14,1.23,22.11,1.22,6.53,0,23.33-1.22l31.48,39.35q4.32,5.21,66.72,80.8.12-15.51.12-22.5,0-16.51-1-60.41-.45-20.5-1.06-22.28a6.78,6.78,0,0,0-2.55-3.21q-1.93-1.44-15.46-4-1.77-.33-5.21-1.22v-6.54q19.72,1.23,31.37,1.22,11.31,0,31.26-1.22v6.54c-2,.52-3.48.85-4.44,1q-14.85,3.1-16.51,4.1a5.16,5.16,0,0,0-2,2c-.74,1.19-1.25,3.4-1.55,6.65q-.11,2.11-.5,30.21t-.38,54.37q0,31,1.1,52.42l-7.2,3.33-46.22-57.43-60.63-73,.55,65.53q.56,43,1.22,45.89a6.55,6.55,0,0,0,2,3.44q2.43,2.22,16.51,4.66c1.11.14,2.77.48,5,1v6.54q-16.95-1.22-28.6-1.22-9.75,0-34,1.22V836.8l5.87-1.33q13.3-2.33,15.41-4.32a6.07,6.07,0,0,0,1.77-3.44q1.11-5.09,1.55-38.57.55-47.43.56-56.08,0-27.82-.78-30.93a5.75,5.75,0,0,0-2.88-3.71q-2.45-1.5-21-4.6Q1657.19,693.49,1653.2,692.6Z"/><path class="cls-1" d="M468.08,87.86l25.73-62.27A108.87,108.87,0,0,1,539,3q24.75-5.73,53.89-.59,44.49,7.85,66.39,35.43T675.22,99.3a86.33,86.33,0,0,1-18.59,40.49q-14.58,17.75-53.69,40a102.38,102.38,0,0,1,33.75,12.76q23.22,13.65,32.76,34.55t4.93,47.09q-9.37,53.16-62.55,87.14T495.19,384.15A156.82,156.82,0,0,1,463.27,375a176.9,176.9,0,0,1-30.44-16q.36-33-7.45-83.07L441,272.34q9.87,41.42,17.95,55.16t23.23,23.66q15.17,9.93,38.17,14,39.67,7,66.2-13.55t34.32-64.71q6.57-37.31-8.59-61.1t-46.11-29.27q-23.8-4.2-52.63,4.63l-3.23-3.3,10.34-29.26a210.25,210.25,0,0,0,20.61,5.27q32.26,5.68,56.31-10.8t29.78-49q5.22-29.62-9.51-50.63t-43.61-26.1a86.23,86.23,0,0,0-38.16,1.86Q517,44.4,506.65,53.48q-4.25,3.9-12.79,19.84l-9.35,17.44Z"/><path class="cls-1" d="M775.85,146.58q9.57,13.77,23.73,32l18.75,24.32q5,6.24,6.64,7.13a7.31,7.31,0,0,0,3.42.88h2.54v6.15q-8.1-.69-14.16-.69a105.32,105.32,0,0,0-11.72.69l-34.57-46.68q-9.66-12.9-20.7-25.2l1-3.32q5.67.5,8.4.49,16.3,0,25.54-8.4t9.23-22.46q0-12.6-7.81-19.68t-22.56-7.08a59.33,59.33,0,0,0-20.61,3.81q-1.17,15.53-1.17,33.21v47.16q0,34.49,1.66,38.24t10.74,3.76h7.62v6.15q-16.21-.69-26.86-.69-8.4,0-30.37.69v-6.15h7.33q8.4,0,10-3.67t1.56-38.52v-47q0-30.28-1.81-33.89t-11.76-3.61h-5.28V78.12q18.16.69,27.74.69,6.44,0,18.55-.49,14.07-.5,20.22-.49,16.89,0,25.63,3.56a26.83,26.83,0,0,1,17.82,26.42,34.45,34.45,0,0,1-9.91,24.32Q794.7,142.68,775.85,146.58Z"/><path class="cls-1" d="M849.08,207.32q1.56-15.13,1.56-52.93V126.07q0-17.38-1.17-30-.69-7.32-1.81-8.49c-.75-.79-3.44-1.5-8.06-2.15l-7.81-1.17V78.12q16.11.5,21.68.49l26.27-.19L901.13,78a124.44,124.44,0,0,1,26.46,2.53,60.69,60.69,0,0,1,24.61,11,53.52,53.52,0,0,1,16.8,20.7q5.76,12.45,5.76,28.76,0,33-22.22,54.59t-58,21.59l-12-.3q-17.67-.67-22.36-.68-7.9,0-20.12,1.17v-4.69Zm21.09-.49a159.91,159.91,0,0,0,23.24,2q27.35,0,42.48-14.07,18.27-17.08,18.26-49.8,0-28.51-15.18-43.46T894.49,86.52a171.35,171.35,0,0,0-24.32,2A173.46,173.46,0,0,0,869,109.86v63.87Q869,191.4,870.17,206.83Z"/><rect class="cls-1" x="698.35" y="283.85" width="1156" height="23"/><rect class="cls-1" x="698.35" y="237.85" width="1156" height="46"/><rect class="cls-1" x="1854.35" y="237.85" width="10" height="619"/><rect class="cls-1" x="8.35" y="856.85" width="1856" height="15"/></g></g></svg>