<svg xmlns="http://www.w3.org/2000/svg" width="95.969" height="95.947" viewBox="0 0 95.969 95.947"><defs><style>.a{fill:#e37200;}</style></defs><g transform="translate(17 1129.944)"><g transform="translate(-17 -1129.944)"><g transform="translate(0)"><path class="a" d="M87.546,64.524A16.746,16.746,0,0,0,75.8,62.592L61.237,48.03,75.816,33.457A16.866,16.866,0,0,0,95.386,12.55,16.868,16.868,0,0,0,62.552,20.22L47.984,34.783,46.8,33.6a1.874,1.874,0,0,0-2.65,2.651l1.182,1.181L37.382,45.38,23.4,31.4l7.944-7.954.877.876a1.874,1.874,0,1,0,2.65-2.651L33.4,20.209A16.869,16.869,0,0,0,9.449,1.784C7.773,2.6,6.9,3.658,6.855,4.925c-.043,1.244.709,2.321,2.237,3.2l5.032,2.9c.857.494.857.734.857,1.168v2.154c0,1.343-.133,1.574-1.3,2.246l-1.866,1.077c-.365.211-.585.338-1.442-.157l-5.031-2.9c-1.528-.882-2.837-.994-3.893-.335C.376,14.954-.1,16.237.027,18.1A16.869,16.869,0,0,0,20.163,33.468L34.731,48.03,20.152,62.6A16.862,16.862,0,1,0,33.415,75.84L47.983,61.277,62.563,75.851A16.868,16.868,0,0,0,86.518,94.276c1.677-.817,2.549-1.874,2.594-3.142.043-1.244-.709-2.321-2.237-3.2l-5.031-2.9c-.857-.495-.857-.734-.857-1.168V81.705c0-1.343.133-1.574,1.3-2.246l1.866-1.077c.365-.21.585-.338,1.442.157l5.032,2.9c1.527.882,2.837.994,3.893.335,1.075-.672,1.554-1.956,1.424-3.816a16.849,16.849,0,0,0-8.394-13.439ZM10.3,28.29A13.107,13.107,0,0,1,3.782,18.043L8.5,20.767a4.836,4.836,0,0,0,5.189.157l1.866-1.077a5.523,5.523,0,0,0,3.172-5.492V12.2A4.833,4.833,0,0,0,16,7.786L11.28,5.063A13.119,13.119,0,0,1,29.648,19.844L19.8,29.71a13.025,13.025,0,0,1-9.5-1.42ZM67.732,10.358A13.119,13.119,0,1,1,76.181,29.7l-9.87-9.849a13.01,13.01,0,0,1,1.42-9.495ZM28.236,85.7a13.119,13.119,0,1,1-8.45-19.344l9.87,9.849A13.012,13.012,0,0,1,28.236,85.7Zm3.115-13.1-7.958-7.941,41.222-41.2L72.574,31.4ZM50.635,58.627l7.951-7.948L72.567,64.655,64.623,72.61ZM87.466,75.294a4.836,4.836,0,0,0-5.189-.157l-1.866,1.077A5.523,5.523,0,0,0,77.239,81.7V83.86a4.835,4.835,0,0,0,2.732,4.415L84.688,91A13.119,13.119,0,0,1,66.32,76.215l9.852-9.865A13.114,13.114,0,0,1,92.186,78.017Z" transform="translate(0 -0.056)"/><path class="a" d="M382.95,58.61l5.623,3.245a1.874,1.874,0,0,0,1.873,0l5.622-3.245a1.874,1.874,0,0,0,.938-1.623V50.5a1.874,1.874,0,0,0-.937-1.623l-5.622-3.245a1.873,1.873,0,0,0-1.873,0l-5.623,3.245a1.874,1.874,0,0,0-.937,1.623v6.49A1.874,1.874,0,0,0,382.95,58.61Zm2.811-7.031,3.748-2.163,3.748,2.163V55.9l-3.748,2.163L385.761,55.9Z" transform="translate(-310.416 -36.884)"/><path class="a" d="M64.094,380.917l-5.623-3.245a1.874,1.874,0,0,0-1.874,0l-5.623,3.245a1.874,1.874,0,0,0-.937,1.623v6.489a1.874,1.874,0,0,0,.937,1.623L56.6,393.9a1.874,1.874,0,0,0,1.874,0l5.623-3.245a1.874,1.874,0,0,0,.937-1.623V382.54A1.875,1.875,0,0,0,64.094,380.917Zm-2.811,7.03-3.748,2.163-3.748-2.163v-4.325l3.748-2.163,3.748,2.163Z" transform="translate(-40.66 -306.696)"/></g><path class="a" d="M202.692,148.043a1.874,1.874,0,1,0,0-3.748h0a1.874,1.874,0,0,0,0,3.748Z" transform="translate(-163.18 -117.262)"/></g></g></svg>
